<svg width="320" height="320" viewBox="0 0 320 320" fill="none" xmlns="http://www.w3.org/2000/svg">
<g clip-path="url(#clip0)">
<path d="M270.894 59.8933C250.494 50.6933 228.627 43.8933 205.761 40.0267C205.557 39.9876 205.346 40.0128 205.157 40.0988C204.969 40.1848 204.811 40.3273 204.707 40.5067C201.907 45.4267 198.787 51.84 196.601 56.9067C172.349 53.2832 147.693 53.2832 123.441 56.9067C121.005 51.2915 118.259 45.8163 115.214 40.5067C115.111 40.3251 114.955 40.1793 114.766 40.0888C114.578 39.9983 114.367 39.9673 114.161 40C91.3072 43.8667 69.4406 50.6667 49.0272 59.88C48.8516 59.9537 48.7027 60.0793 48.6006 60.24C7.10722 121.24 -4.26612 180.733 1.32055 239.48C1.3361 239.624 1.38076 239.763 1.45182 239.889C1.52287 240.015 1.61884 240.125 1.73388 240.213C25.9525 257.846 52.9651 271.278 81.6406 279.947C81.8405 280.008 82.0543 280.008 82.2541 279.946C82.4539 279.884 82.6304 279.764 82.7606 279.6C88.9206 271.333 94.4139 262.6 99.1072 253.427C99.3872 252.893 99.1206 252.253 98.5606 252.04C89.9473 248.796 81.6017 244.882 73.6006 240.333C73.4568 240.251 73.3357 240.135 73.248 239.994C73.1603 239.854 73.1089 239.694 73.0983 239.529C73.0878 239.363 73.1184 239.198 73.1874 239.048C73.2565 238.897 73.3618 238.766 73.4939 238.667C75.1739 237.427 76.8539 236.133 78.4539 234.84C78.5979 234.724 78.7714 234.65 78.955 234.626C79.1386 234.603 79.3252 234.63 79.4939 234.707C131.854 258.227 188.561 258.227 240.307 234.707C240.476 234.626 240.665 234.594 240.851 234.616C241.037 234.637 241.214 234.71 241.361 234.827C242.961 236.133 244.627 237.427 246.321 238.667C246.454 238.764 246.561 238.893 246.632 239.043C246.704 239.192 246.737 239.356 246.729 239.521C246.721 239.687 246.672 239.847 246.587 239.989C246.502 240.13 246.383 240.249 246.241 240.333C238.267 244.92 229.974 248.8 221.267 252.027C221.134 252.075 221.012 252.152 220.91 252.251C220.808 252.35 220.729 252.47 220.677 252.603C220.625 252.735 220.602 252.877 220.61 253.019C220.617 253.161 220.655 253.3 220.721 253.427C225.521 262.587 231.014 271.307 237.054 279.587C237.18 279.757 237.354 279.884 237.555 279.95C237.755 280.017 237.972 280.021 238.174 279.96C266.899 271.315 293.955 257.877 318.201 240.213C318.319 240.131 318.418 240.024 318.492 239.899C318.565 239.775 318.612 239.637 318.627 239.493C325.294 171.573 307.454 112.56 271.307 60.2667C271.219 60.0967 271.072 59.9642 270.894 59.8933ZM106.934 203.707C91.1739 203.707 78.1739 189.453 78.1739 171.973C78.1739 154.48 90.9206 140.24 106.934 140.24C123.067 140.24 135.947 154.6 135.694 171.973C135.694 189.467 122.947 203.707 106.934 203.707V203.707ZM213.267 203.707C197.494 203.707 184.507 189.453 184.507 171.973C184.507 154.48 197.241 140.24 213.267 140.24C229.401 140.24 242.281 154.6 242.027 171.973C242.027 189.467 229.414 203.707 213.267 203.707V203.707Z" fill="#85B6FF"/>
</g>
<defs>
<clipPath id="clip0">
<rect width="320" height="320" fill="white"/>
</clipPath>
</defs>
</svg>
