<svg width="353" height="353" viewBox="0 0 353 353" fill="none" xmlns="http://www.w3.org/2000/svg">
<path d="M323.583 126.609V246.365C323.584 258.574 318.913 270.322 310.527 279.197C302.142 288.072 290.678 293.402 278.488 294.093L275.781 294.167H77.2188C65.0089 294.167 53.2615 289.496 44.3864 281.11C35.5114 272.725 30.1816 261.261 29.4903 249.071L29.4167 246.365V126.609L171.382 200.975C172.961 201.802 174.717 202.234 176.5 202.234C178.283 202.234 180.039 201.802 181.619 200.975L323.583 126.609ZM77.2188 58.8333H275.781C287.63 58.8319 299.057 63.2311 307.846 71.1776C316.635 79.1241 322.16 90.0515 323.348 101.84L176.5 178.765L29.6521 101.84C30.7923 90.5197 35.9333 79.9768 44.1508 72.1071C52.3684 64.2373 63.1236 59.5568 74.4831 58.9069L77.2188 58.8333H275.781H77.2188Z" fill="#85B6FF"/>
</svg>
