<svg width="128" height="128" viewBox="0 0 128 128" fill="none" xmlns="http://www.w3.org/2000/svg">
<path d="M64 115.2C77.5791 115.2 90.602 109.806 100.204 100.204C109.806 90.602 115.2 77.5791 115.2 64C115.2 50.4209 109.806 37.398 100.204 27.7961C90.602 18.1943 77.5791 12.8 64 12.8C50.4209 12.8 37.398 18.1943 27.7961 27.7961C18.1943 37.398 12.8 50.4209 12.8 64C12.8 77.5791 18.1943 90.602 27.7961 100.204C37.398 109.806 50.4209 115.2 64 115.2V115.2ZM64 128C28.6528 128 0 99.3472 0 64C0 28.6528 28.6528 0 64 0C99.3472 0 128 28.6528 128 64C128 99.3472 99.3472 128 64 128Z" fill="#EFAAC4"/>
<path d="M96 44.4608C93.6448 45.4848 91.1168 46.1888 88.4608 46.496C91.1744 44.896 93.248 42.3616 94.2336 39.3472C91.6478 40.8542 88.8264 41.9144 85.888 42.4832C84.652 41.1877 83.1651 40.1575 81.5179 39.4555C79.8707 38.7535 78.0977 38.3943 76.3072 38.4C69.056 38.4 63.1808 44.192 63.1808 51.328C63.1808 52.3392 63.296 53.3248 63.52 54.272C58.3189 54.025 53.2264 52.6966 48.5673 50.3715C43.9083 48.0464 39.7851 44.7757 36.4608 40.768C35.2932 42.7334 34.6785 44.9779 34.6816 47.264C34.6816 51.744 37.0048 55.712 40.5248 58.0224C38.4412 57.9571 36.4023 57.4024 34.5728 56.4032V56.5632C34.5926 59.5677 35.6531 62.4726 37.5739 64.7831C39.4946 67.0936 42.1568 68.6669 45.1072 69.2352C43.1703 69.7474 41.1436 69.8217 39.1744 69.4528C40.0328 72.0376 41.6747 74.2909 43.8721 75.9C46.0696 77.5091 48.7135 78.394 51.4368 78.432C46.7646 82.0324 41.0281 83.9776 35.1296 83.9616C34.0736 83.9616 33.0304 83.8976 32 83.7824C38.019 87.5922 44.9982 89.6101 52.1216 89.6C76.2752 89.6 89.4784 69.9008 89.4784 52.8128L89.4336 51.136C92.0083 49.3266 94.2331 47.0649 96 44.4608V44.4608Z" fill="#EFAAC4"/>
</svg>
