<svg width="358" height="358" viewBox="0 0 358 358" fill="none" xmlns="http://www.w3.org/2000/svg">
<path d="M339.027 79.834C330.256 92.901 319.158 104.536 306.27 113.844C306.449 116.529 306.449 119.393 306.449 122.257C306.449 209.072 240.398 309.133 119.751 309.133C82.6984 309.133 48.1514 298.214 18.9744 279.598C24.1654 280.135 29.3564 280.493 34.7264 280.493C65.5144 280.493 93.7964 269.932 116.171 252.39C102.484 252.107 89.2269 247.556 78.2516 239.373C67.2763 231.189 59.131 219.782 54.9534 206.745C58.8914 207.461 63.0084 207.998 67.3044 207.998C73.2114 207.998 79.1184 207.103 84.4884 205.671C69.6422 202.623 56.3009 194.55 46.7143 182.811C37.1278 171.072 31.8823 156.387 31.8624 141.231V140.515C40.8124 145.348 50.8364 148.391 61.5764 148.749C52.5871 142.719 45.2222 134.567 40.1332 125.013C35.0442 115.46 32.388 104.799 32.3994 93.975C32.3994 81.982 35.6214 70.705 41.3494 61.039C73.7484 100.777 122.078 126.911 176.673 129.596C175.599 124.763 174.883 119.751 174.883 114.56C174.931 97.1682 181.873 80.5049 194.188 68.2237C206.502 55.9426 223.185 49.046 240.577 49.046C259.551 49.046 276.556 56.922 288.549 69.81C303.406 66.767 317.547 61.397 330.256 53.879C325.244 69.094 314.862 81.982 301.258 90.037C314.299 88.6115 327.041 85.1695 339.027 79.834V79.834Z" fill="#85B6FF"/>
</svg>
