<svg width="129" height="131" viewBox="0 0 129 131" fill="none" xmlns="http://www.w3.org/2000/svg">
<path d="M92.154 78.5566C92.666 74.2451 93.05 69.9337 93.05 65.4916C93.05 61.0495 92.666 56.738 92.154 52.4266H113.786C114.81 56.6074 115.45 60.9842 115.45 65.4916C115.45 69.999 114.81 74.3758 113.786 78.5566H92.154ZM80.826 114.877C84.666 107.626 87.61 99.7872 89.658 91.6215H108.538C102.337 102.52 92.5003 110.775 80.826 114.877V114.877ZM79.226 78.5566H49.274C48.634 74.2451 48.25 69.9337 48.25 65.4916C48.25 61.0495 48.634 56.6727 49.274 52.4266H79.226C79.802 56.6727 80.25 61.0495 80.25 65.4916C80.25 69.9337 79.802 74.2451 79.226 78.5566ZM64.25 117.49C58.938 109.651 54.65 100.963 52.026 91.6215H76.474C73.85 100.963 69.562 109.651 64.25 117.49ZM38.65 39.3616H19.962C26.0987 28.4342 35.9287 20.1658 47.61 16.1059C43.77 23.357 40.89 31.196 38.65 39.3616ZM19.962 91.6215H38.65C40.89 99.7872 43.77 107.626 47.61 114.877C35.9532 110.773 26.137 102.516 19.962 91.6215V91.6215ZM14.714 78.5566C13.69 74.3758 13.05 69.999 13.05 65.4916C13.05 60.9842 13.69 56.6074 14.714 52.4266H36.346C35.834 56.738 35.45 61.0495 35.45 65.4916C35.45 69.9337 35.834 74.2451 36.346 78.5566H14.714ZM64.25 13.4276C69.562 21.2666 73.85 30.0202 76.474 39.3616H52.026C54.65 30.0202 58.938 21.2666 64.25 13.4276V13.4276ZM108.538 39.3616H89.658C87.6549 31.2708 84.6889 23.4609 80.826 16.1059C92.602 20.2214 102.394 28.5177 108.538 39.3616ZM64.25 0.166668C28.858 0.166668 0.25 29.5629 0.25 65.4916C0.25 82.8168 6.99284 99.4325 18.9952 111.683C24.9381 117.749 31.9934 122.561 39.7583 125.844C47.5231 129.127 55.8454 130.816 64.25 130.816C81.2239 130.816 97.5025 123.934 109.505 111.683C121.507 99.4325 128.25 82.8168 128.25 65.4916C128.25 56.913 126.595 48.4184 123.378 40.4928C120.162 32.5672 115.448 25.3659 109.505 19.2999C103.562 13.2339 96.5066 8.42212 88.7417 5.13923C80.9769 1.85635 72.6546 0.166668 64.25 0.166668V0.166668Z" fill="#EFAAC4"/>
</svg>
